<svg xmlns="http://www.w3.org/2000/svg" xmlns:xlink="http://www.w3.org/1999/xlink" version="1.0" x="0px" y="0px" width="100px" height="100px" viewBox="0 0 100 100" overflow="" enable-background="new 0 0 100 100" xml:space="preserve">
    <path d="M60.02,50.717L47.022,63.718l-5.488-5.485c-1.892-1.886-4.937-1.89-6.832,0c-1.876,1.884-1.893,4.945,0,6.83 l8.89,8.885c0.709,0.715,1.589,1.158,2.512,1.329c1.527,0.297,3.171-0.147,4.346-1.329l16.401-16.393 c1.895-1.889,1.895-4.941,0-6.833C64.968,48.84,61.905,48.828,60.02,50.717z"/>
    <path d="M50.742,15.899c2.621,0,4.732-2.111,4.732-4.725c0-2.611-2.111-4.732-4.732-4.732 c-2.604,0-4.721,2.121-4.721,4.732C46.021,13.788,48.138,15.899,50.742,15.899z"/>
    <path d="M77.657,6.327H63.603c-1.434-2.846-4.081-4.974-7.272-5.675c-0.023-0.012-0.047-0.012-0.057-0.028 c-0.07-0.008-0.14-0.024-0.202-0.024c-0.425,0-0.769,0.345-0.769,0.766c0,0.329,0.209,0.609,0.499,0.71 c3.363,1.824,5.663,5.376,5.663,9.477h8.93c5.939,0,10.757,4.823,10.757,10.765v3.392c0,1.792-1.463,3.26-3.262,3.26H23.517 c-1.806,0-3.261-1.467-3.261-3.26v-3.392c0-5.941,4.818-10.765,10.756-10.765h8.933c0-1.897,0.492-3.674,1.357-5.226H24.274 c-7.249,0-13.12,5.882-13.12,13.132v67.414v0.005c0,7.251,5.871,13.122,13.12,13.122H77.66c7.25,0,13.121-5.871,13.121-13.122 v-0.005V19.459C90.781,12.209,84.907,6.327,77.657,6.327z M77.89,85.29c0,1.808-1.464,3.262-3.268,3.262H26.856 c-1.799,0-3.26-1.454-3.26-3.262V39.692c0-1.8,1.46-3.26,3.26-3.26h47.766c1.804,0,3.268,1.46,3.268,3.26V85.29z"/>
</svg>