<svg xmlns="http://www.w3.org/2000/svg" xmlns:xlink="http://www.w3.org/1999/xlink" version="1.1" x="0px" y="0px" width="100px" height="100px" viewBox="0 0 100 100" enable-background="new 0 0 100 100" xml:space="preserve">
<g id="Captions">
	<rect x="-192" width="185" height="99"/>
	<rect y="-36" width="100" height="30"/>
	<text transform="matrix(1 0 0 1 66 -19.5)" fill="#000000" font-family="'Helvetica'" font-size="2.4">http://thenounproject.com</text>
	<text transform="matrix(1 0 0 1 7.166 -24.5)"><tspan x="0" y="0" fill="#000000" font-family="'Helvetica-Bold'" font-size="6.1578">The Noun Project</tspan><tspan x="1.12" y="4.8" fill="#000000" font-family="'Helvetica-Bold'" font-size="4">Icon Template</tspan></text>
	<text transform="matrix(1 0 0 1 -178.5 10.5)" fill="#000000" font-family="'Helvetica-Bold'" font-size="6.1578">Reminders</text>
	<line fill="#000000" stroke="#FFFFFF" stroke-miterlimit="10" x1="8" y1="-14.5" x2="18" y2="-14.5"/>
	<line fill="#000000" stroke="#FFFFFF" stroke-miterlimit="10" x1="-179" y1="16.5" x2="-162" y2="16.5"/>
	<g>
		<g>
			<g>
				<rect x="-170.802" y="31.318" fill="#000000" width="8.721" height="8.642"/>
				<path fill="#000000" d="M-164.455,42.312h4.747v-4.703h-4.747V42.312z M-159.266,42.749h-5.63V37.17h5.63V42.749      L-159.266,42.749z M-166.221,44.062h8.279v-8.203h-8.279V44.062L-166.221,44.062z M-157.5,44.5h-9.163v-9.079h9.163V44.5      L-157.5,44.5z"/>
				<polygon fill="#000000" points="-166.149,44.133 -166.292,43.991 -158.013,35.787 -157.871,35.929     "/>
			</g>
		</g>
	</g>
	<rect x="-179" y="58" fill="none" width="35" height="32.5"/>
	<text transform="matrix(1 0 0 1 -179 60.1299)"><tspan x="0" y="0" fill="#000000" font-family="'Helvetica-Bold'" font-size="3">Strokes</tspan><tspan x="0" y="5" fill="#000000" font-family="'Helvetica'" font-size="2.4">Try to keep strokes at 4px</tspan><tspan x="0" y="10" fill="#000000" font-family="'Helvetica'" font-size="2.4">Minimum stroke weight is 2px</tspan><tspan x="0" y="14.5" fill="#000000" font-family="'Helvetica'" font-size="2.4">For thicker strokes use even </tspan><tspan x="0" y="17.5" fill="#000000" font-family="'Helvetica'" font-size="2.4">numbers: 6px, 8px etc.</tspan><tspan x="0" y="22" fill="#000000" font-family="'Helvetica-Bold'" font-size="2.4">Remember to expand strokes </tspan><tspan x="0" y="25" fill="#000000" font-family="'Helvetica-Bold'" font-size="2.4">before saving as an SVG </tspan></text>
	<rect x="-136.5" y="58" fill="none" width="35" height="32.5"/>
	<text transform="matrix(1 0 0 1 -136.5 60.1299)"><tspan x="0" y="0" fill="#000000" font-family="'Helvetica-Bold'" font-size="3">Size</tspan><tspan x="0" y="5" fill="#000000" font-family="'Helvetica'" font-size="2.4">Cannot be wider or taller than </tspan><tspan x="0" y="8.5" fill="#000000" font-family="'Helvetica'" font-size="2.4">100px (artboard size)</tspan><tspan x="0" y="13.5" fill="#000000" font-family="'Helvetica'" font-size="2.4">Scale your icon to fill as much of </tspan><tspan x="0" y="16.5" fill="#000000" font-family="'Helvetica'" font-size="2.4">the artboard as possible</tspan></text>
	<rect x="-94" y="58" fill="none" width="35" height="32.5"/>
	<text transform="matrix(1 0 0 1 -94 60.1299)"><tspan x="0" y="0" fill="#000000" font-family="'Helvetica-Bold'" font-size="3">Ungroup</tspan><tspan x="0" y="5" fill="#000000" font-family="'Helvetica'" font-size="2.4">If your design has more than one </tspan><tspan x="0" y="8" fill="#000000" font-family="'Helvetica'" font-size="2.4">shape, make sure to ungroup</tspan></text>
	<rect x="-50" y="58" fill="none" width="35" height="32.5"/>
	<text transform="matrix(1 0 0 1 -50 60.1299)"><tspan x="0" y="0" fill="#000000" font-family="'Helvetica-Bold'" font-size="3">Save as</tspan><tspan x="0" y="5" fill="#000000" font-family="'Helvetica'" font-size="2.4">Save as .SVG and make sure &#8220;Use </tspan><tspan x="0" y="8" fill="#000000" font-family="'Helvetica'" font-size="2.4">Artboards&#8221; is checked</tspan></text>
	<text transform="matrix(1.0074 0 0 1 -125.542 30.5933)" fill="#000000" font-family="'Helvetica'" font-size="2.5731">100px</text>
	<text transform="matrix(1.0074 0 0 1 -41 39)" fill="#000000" font-family="'Helvetica-Bold'" font-size="5.1462">.SVG</text>
	<rect x="-126.514" y="34.815" fill="#000000" width="10.261" height="10.185"/>
	<rect x="-126.477" y="31.766" fill="#000000" width="0.522" height="2.337"/>
	<rect x="-116.813" y="31.766" fill="#000000" width="0.523" height="2.337"/>
	<rect x="-127" y="32.337" fill="#000000" width="11.233" height="0.572"/>
	<g>
		<rect x="-83.805" y="33.844" fill="#000000" width="10.305" height="10.156"/>
		<rect x="-76.809" y="28.707" fill="#000000" width="3.308" height="3.261"/>
	</g>
	<rect x="-178.5" y="22.5" fill="#000000" stroke="#FFFFFF" stroke-miterlimit="10" width="30" height="30"/>
	<rect x="-136.5" y="22.5" fill="#000000" stroke="#FFFFFF" stroke-miterlimit="10" width="30" height="30"/>
	<rect x="-93.5" y="22.5" fill="#000000" stroke="#FFFFFF" stroke-miterlimit="10" width="30" height="30"/>
	<rect x="-49.5" y="22.5" fill="#000000" stroke="#FFFFFF" stroke-miterlimit="10" width="30" height="30"/>
</g>
<g id="Your_Icon">
	<g>
		<path d="M44.698,47.116c-3.205-2.034-10.375-2.542-10.375-2.542s-3.865-3.204-7.477-4.779c-3.611-1.576-6.967-1.12-11.239-0.458    c-4.271,0.66-7.374,3.711-9.154,4.881c-1.779,1.17-4.525,1.119-4.525,1.119v8.494h1.576c0,0,0.916-4.731,5.137-4.731    c4.22,0,5.238,4.731,5.238,4.731h18.815c0,0,0.204-4.731,4.933-4.731c4.73,0,5.391,4.731,5.391,4.731h4.068    C47.087,53.831,47.901,49.151,44.698,47.116z M17.999,45.49h-7.426c0.741-4.576,7.426-4.731,7.426-4.731V45.49z M19.931,45.49    v-5.035c6.51-0.458,11.544,5.035,11.544,5.035H19.931z"/>
		<path d="M8.642,50.778c-1.994,0-3.611,1.617-3.611,3.61C5.031,56.384,6.648,58,8.642,58c1.994,0,3.61-1.616,3.61-3.611    C12.252,52.396,10.636,50.778,8.642,50.778z M8.642,55.933c-0.853,0-1.543-0.69-1.543-1.544c0-0.853,0.691-1.542,1.543-1.542    c0.851,0,1.542,0.689,1.542,1.542C10.185,55.242,9.493,55.933,8.642,55.933z"/>
		<path d="M37.85,50.778c-1.995,0-3.611,1.617-3.611,3.61c0,1.995,1.616,3.611,3.611,3.611c1.994,0,3.611-1.616,3.611-3.611    C41.46,52.396,39.844,50.778,37.85,50.778z M37.85,55.933c-0.852,0-1.542-0.69-1.542-1.544c0-0.853,0.691-1.542,1.542-1.542    c0.853,0,1.542,0.689,1.542,1.542C39.392,55.242,38.702,55.933,37.85,55.933z"/>
	</g>
	<g>
		<path d="M52.842,53.831h4.067c0,0,0.661-4.731,5.391-4.731s4.934,4.731,4.934,4.731h18.815c0,0,1.018-4.731,5.238-4.731    s5.137,4.731,5.137,4.731H98v-8.494c0,0-2.746,0.051-4.525-1.119c-1.78-1.169-4.883-4.221-9.154-4.881    c-4.271-0.662-7.628-1.118-11.239,0.458c-3.611,1.576-7.476,4.779-7.476,4.779s-7.171,0.508-10.375,2.542    C52.027,49.151,52.842,53.831,52.842,53.831z M81.931,40.759c0,0,6.685,0.155,7.426,4.731h-7.426V40.759z M68.454,45.49    c0,0,5.034-5.493,11.544-5.035v5.035H68.454z"/>
		<path d="M87.677,54.389c0,1.995,1.616,3.611,3.61,3.611s3.61-1.616,3.61-3.611c0-1.993-1.616-3.61-3.61-3.61    S87.677,52.396,87.677,54.389z M89.744,54.389c0-0.853,0.691-1.542,1.543-1.542c0.853,0,1.543,0.689,1.543,1.542    c0,0.854-0.69,1.544-1.543,1.544C90.436,55.933,89.744,55.242,89.744,54.389z"/>
		<path d="M58.47,54.389c0,1.995,1.615,3.611,3.609,3.611s3.611-1.616,3.611-3.611c0-1.993-1.617-3.61-3.611-3.61    S58.47,52.396,58.47,54.389z M60.537,54.389c0-0.853,0.689-1.542,1.542-1.542c0.852,0,1.543,0.689,1.543,1.542    c0,0.854-0.691,1.544-1.543,1.544C61.227,55.933,60.537,55.242,60.537,54.389z"/>
	</g>
	<g>
		<path d="M54.121,41.774l4.35-2.484l-5.001,0.029l2.527-4.327l-4.323,2.525l0.028-5.011l-2.482,4.344l-2.48-4.349l0.025,5.002    l-4.323-2.527l2.522,4.318l-5.009-0.024l4.344,2.479l-4.351,2.483l2.264-0.012c0.859-0.708,1.965-1.277,3.229-1.653l1.422-0.811    l-2.078-1.188l2.394,0.014l-1.204-2.065l2.065,1.207l-0.011-2.392l1.188,2.082l1.187-2.081L50.39,39.73l2.063-1.208l-1.206,2.071    l2.393-0.015l-2.08,1.189l2.058,1.174c0.839,0.348,1.584,0.786,2.201,1.296l2.649,0.014L54.121,41.774z"/>
	</g>
</g>
</svg>