<?xml version="1.0" encoding="iso-8859-1"?>
<!-- Generator: Adobe Illustrator 16.0.0, SVG Export Plug-In . SVG Version: 6.00 Build 0)  -->
<!DOCTYPE svg PUBLIC "-//W3C//DTD SVG 1.1//EN" "http://www.w3.org/Graphics/SVG/1.1/DTD/svg11.dtd">
<svg version="1.1" id="Capa_1" xmlns="http://www.w3.org/2000/svg" xmlns:xlink="http://www.w3.org/1999/xlink" x="0px" y="0px"
	 width="122.944px" height="122.944px" viewBox="0 0 122.944 122.944" style="enable-background:new 0 0 122.944 122.944;"
	 xml:space="preserve">
<g>
	<g>
		<path d="M9.032,76.2l9.919,11.629c2.191,2.568,5.593,3.63,9.126,3.206l-11.509,10.939c0,0-0.996,3.501,4.96,5.814
			c5.958,2.316,12.004-10.235,12.004-10.235l-4.51-6.664c0.368-0.07,0.739-0.153,1.112-0.266l13.738,10.223
			c7.823,7.108,15.013,4.923,21.031-0.209l13.401-11.431l0.104-0.089l13.399-11.431c6.02-5.132,9.313-11.888,3.526-20.735
			l-7.923-15.178c0.168-0.35,0.309-0.703,0.436-1.056l5.868,5.503c0,0,13.351-3.987,12.003-10.236
			c-1.345-6.247-4.96-5.816-4.96-5.816L88.14,39.808c0.979-3.422,0.466-6.949-1.724-9.517l-9.92-11.631
			c-2.469-2.895-6.464-3.873-10.471-2.986l-6.667-7.817c-2.255-2.646-7.345-2.005-11.377,1.433
			c-4.026,3.437-5.467,8.365-3.212,11.01l5.546,6.504L35.811,39.172l-0.103,0.089l-14.505,12.37l-5.546-6.504
			c-2.257-2.645-7.352-1.999-11.378,1.436c-4.032,3.439-5.467,8.363-3.212,11.008l6.667,7.817C6.227,69.205,6.563,73.305,9.032,76.2
			z M71.148,27.121l5.339,6.259L63.321,44.61l-5.339-6.26L71.148,27.121z M61.951,70.032l0.104-0.089l24.166-20.611l6.183,12.443
			l0.096,0.172c1.838,3.043,0.758,8.164-2.265,10.743L75.278,85.446l-0.104,0.088L60.216,98.289
			c-3.022,2.579-8.25,2.836-10.965,0.541l-0.155-0.12l-11.311-8.067L61.951,70.032z M31.399,61.024l5.338,6.259L23.57,78.513
			l-5.338-6.259L31.399,61.024z"/>
		<rect x="0.522" y="109.254" width="122.422" height="7.465"/>
		<polygon points="93.079,81.671 93.696,84.548 100.035,83.188 95.168,89.012 100.104,94.049 93.423,93.89 91.255,101.085 
			87.152,96.247 80.478,98.558 84.372,89.886 81.688,88.681 75.003,103.564 86.211,99.688 92.511,107.116 95.593,96.884 
			107.275,97.162 99.133,88.854 107.771,78.522 		"/>
	</g>
</g>
<g>
</g>
<g>
</g>
<g>
</g>
<g>
</g>
<g>
</g>
<g>
</g>
<g>
</g>
<g>
</g>
<g>
</g>
<g>
</g>
<g>
</g>
<g>
</g>
<g>
</g>
<g>
</g>
<g>
</g>
</svg>
